<?xml version="1.0" standalone="no"?>
<!DOCTYPE svg PUBLIC "-//W3C//DTD SVG 20010904//EN"
 "http://www.w3.org/TR/2001/REC-SVG-20010904/DTD/svg10.dtd">
<svg version="1.0" xmlns="http://www.w3.org/2000/svg"
 width="368.000000pt" height="361.000000pt" viewBox="0 0 368.000000 361.000000"
 preserveAspectRatio="xMidYMid meet">
<metadata>
Created by potrace 1.16, written by Peter Selinger 2001-2019
</metadata>
 <style>
        path {
            fill: black;
        }
        @media (prefers-color-scheme: dark) {
            path { fill: white; }
        }
    </style>
<g transform="translate(0.000000,361.000000) scale(0.100000,-0.100000)" stroke="none">
<path d="M1940 3181 l0 -159 178 -4 c194 -5 220 -11 320 -80 94 -63 181 -181
212 -288 17 -58 19 -113 24 -520 3 -250 3 -491 -2 -535 l-7 -80 -75 110 c-83
123 -569 804 -666 933 -241 323 -608 606 -956 736 -53 20 -99 36 -102 36 -3 0
58 -87 136 -192 78 -106 306 -425 506 -708 998 -1407 1515 -2134 1529 -2150 3
-3 3 519 0 1160 l-4 1165 -27 95 c-52 185 -141 328 -278 447 -170 147 -322
192 -645 193 l-143 0 0 -159z"/>
<path d="M585 3128 c-4 -57 -5 -539 -3 -1073 5 -968 5 -970 27 -1045 43 -145
135 -314 220 -403 95 -101 243 -195 371 -236 95 -30 179 -41 321 -41 l126 0 6
83 c4 45 7 119 7 165 l0 82 -102 0 c-141 0 -221 14 -303 55 -118 57 -228 185
-275 318 -17 47 -19 102 -26 517 -3 256 -4 463 -2 460 3 -3 122 -169 264 -370
502 -710 565 -790 744 -944 218 -188 397 -296 643 -387 71 -26 77 -27 67 -9
-6 11 -82 120 -169 242 -561 791 -840 1185 -1001 1413 -101 143 -269 379 -373
525 -104 145 -259 363 -345 485 -85 121 -163 230 -173 243 -17 22 -17 20 -24
-80z"/>
</g>
</svg>
